<svg xmlns="http://www.w3.org/2000/svg" width="128" height="18" viewBox="0 0 128 18" fill="none">
  <path d="M122.461 3.82031C121.914 3.82031 121.426 3.9375 120.996 4.17188C120.566 4.39844 120.199 4.73047 119.895 5.16797C119.59 5.60547 119.355 6.14062 119.191 6.77344C119.035 7.39844 118.957 8.10938 118.957 8.90625C118.957 9.98438 119.094 10.8906 119.367 11.625C119.641 12.3594 120.055 12.9141 120.609 13.2891C121.172 13.6641 121.875 13.8516 122.719 13.8516C123.484 13.8516 124.219 13.7461 124.922 13.5352C125.633 13.3242 126.348 13.0703 127.066 12.7734V16.6875C126.309 17.0234 125.531 17.2656 124.734 17.4141C123.945 17.5625 123.105 17.6367 122.215 17.6367C120.355 17.6367 118.832 17.2695 117.645 16.5352C116.465 15.793 115.594 14.7656 115.031 13.4531C114.477 12.1406 114.199 10.6172 114.199 8.88281C114.199 7.58594 114.379 6.39844 114.738 5.32031C115.105 4.24219 115.641 3.30859 116.344 2.51953C117.047 1.72266 117.914 1.10938 118.945 0.679688C119.984 0.242188 121.172 0.0234375 122.508 0.0234375C123.336 0.0234375 124.207 0.121094 125.121 0.316406C126.043 0.503906 126.941 0.808594 127.816 1.23047L126.398 4.875C125.773 4.57812 125.141 4.32812 124.5 4.125C123.859 3.92188 123.18 3.82031 122.461 3.82031Z" fill="#574235"/>
  <path d="M106.465 17.4023V0.269531H111.117V17.4023H106.465Z" fill="#574235"/>
  <path d="M95.5781 7.37109H102.973V16.6055C102.09 16.9102 101.078 17.1602 99.9375 17.3555C98.7969 17.543 97.6016 17.6367 96.3516 17.6367C94.7031 17.6367 93.2578 17.3164 92.0156 16.6758C90.7734 16.0352 89.8047 15.0625 89.1094 13.7578C88.4141 12.4453 88.0664 10.7891 88.0664 8.78906C88.0664 6.99219 88.4102 5.44141 89.0977 4.13672C89.7852 2.82422 90.7969 1.8125 92.1328 1.10156C93.4766 0.382812 95.1211 0.0234375 97.0664 0.0234375C98.1367 0.0234375 99.1523 0.125 100.113 0.328125C101.074 0.53125 101.91 0.789062 102.621 1.10156L101.156 4.73438C100.539 4.42969 99.8984 4.20312 99.2344 4.05469C98.5703 3.89844 97.8555 3.82031 97.0898 3.82031C96.0664 3.82031 95.2422 4.05078 94.6172 4.51172C94 4.97266 93.5508 5.58984 93.2695 6.36328C92.9883 7.12891 92.8477 7.97656 92.8477 8.90625C92.8477 9.96875 92.9961 10.8672 93.293 11.6016C93.5977 12.3281 94.0391 12.8828 94.6172 13.2656C95.2031 13.6406 95.9102 13.8281 96.7383 13.8281C97.0117 13.8281 97.3438 13.8086 97.7344 13.7695C98.1328 13.7305 98.4336 13.6836 98.6367 13.6289V10.9453H95.5781V7.37109Z" fill="#574235"/>
  <path d="M85.6055 8.8125C85.6055 10.1328 85.4453 11.3359 85.125 12.4219C84.8125 13.5 84.3203 14.4297 83.6484 15.2109C82.9766 15.9922 82.1133 16.5938 81.0586 17.0156C80.0039 17.4297 78.7422 17.6367 77.2734 17.6367C75.8359 17.6367 74.5898 17.4297 73.5352 17.0156C72.4883 16.5938 71.625 15.9961 70.9453 15.2227C70.2656 14.4414 69.7617 13.5078 69.4336 12.4219C69.1055 11.3359 68.9414 10.125 68.9414 8.78906C68.9414 7.00781 69.2344 5.46094 69.8203 4.14844C70.4141 2.82812 71.3281 1.80859 72.5625 1.08984C73.7969 0.363281 75.375 0 77.2969 0C79.25 0 80.8359 0.363281 82.0547 1.08984C83.2812 1.81641 84.1797 2.83984 84.75 4.16016C85.3203 5.48047 85.6055 7.03125 85.6055 8.8125ZM73.8164 8.8125C73.8164 9.84375 73.9336 10.7305 74.168 11.4727C74.4023 12.2148 74.7734 12.7852 75.2812 13.1836C75.7891 13.582 76.4531 13.7812 77.2734 13.7812C78.125 13.7812 78.8008 13.582 79.3008 13.1836C79.8086 12.7852 80.1719 12.2148 80.3906 11.4727C80.6172 10.7305 80.7305 9.84375 80.7305 8.8125C80.7305 7.26562 80.4727 6.04297 79.957 5.14453C79.4414 4.24609 78.5547 3.79688 77.2969 3.79688C76.4609 3.79688 75.7852 4 75.2695 4.40625C74.7617 4.8125 74.3906 5.39062 74.1562 6.14062C73.9297 6.89062 73.8164 7.78125 73.8164 8.8125Z" fill="#574235"/>
  <path d="M55.6055 17.4023V0.269531H60.2344V13.6641H66.832V17.4023H55.6055Z" fill="#574235"/>
  <path d="M47.5078 17.4023H42.2812L38.8945 10.8516L37.5234 11.6719V17.4023H32.8711V0.269531H37.5234V7.71094C37.7188 7.33594 37.9414 6.96094 38.1914 6.58594C38.4492 6.21094 38.6992 5.85547 38.9414 5.51953L42.5391 0.269531H47.6016L42.1992 7.94531L47.5078 17.4023Z" fill="#574235"/>
  <path d="M25.9453 17.4023L25.1016 14.1914H19.5352L18.668 17.4023H13.582L19.1719 0.199219H25.3477L31.0078 17.4023H25.9453ZM24.1406 10.3945L23.4023 7.58203C23.3242 7.27734 23.2109 6.84375 23.0625 6.28125C22.9141 5.71094 22.7656 5.125 22.6172 4.52344C22.4766 3.91406 22.3672 3.41406 22.2891 3.02344C22.2188 3.41406 22.1172 3.89844 21.9844 4.47656C21.8594 5.04688 21.7266 5.61328 21.5859 6.17578C21.4531 6.73828 21.3359 7.20703 21.2344 7.58203L20.4961 10.3945H24.1406Z" fill="#574235"/>
  <path d="M8.8125 17.4023H4.18359V4.05469H0V0.269531H12.9844V4.05469H8.8125V17.4023Z" fill="#574235"/>
</svg>
